# xmcd
#
# Track frame offsets: 
#        150
#        18350
#        36505
#        56610
#        76192
#        93899
#        116180
#        132312
#
# Disc length: 1988 seconds
#
# Revision: 0
# Processed by: cddbd v1.5.2PL0 Copyright (c) Steve Scherf et al.
# Submitted via: ExactAudioCopy v1.3
#
DISCID=6307c208
DTITLE=The Black Sorrows - Crooked Little Thoughts [disk 2]
DYEAR=2012
DGENRE=Blues Rock
TTITLE0=Lover's Story
TTITLE1=I'm The One
TTITLE2=Perfect Ending
TTITLE3=Nothin Lasts Forever
TTITLE4=A Fool And The Moon
TTITLE5=How Could I Have Been So Wrong!
TTITLE6=The Romantic Death Of Me
TTITLE7=The End Of Time
EXTD=
EXTT0=
EXTT1=
EXTT2=
EXTT3=
EXTT4=
EXTT5=
EXTT6=
EXTT7=
PLAYORDER=
